/* XPM */
static char *result[] = {
/* columns rows colors chars-per-pixel */
"32 32 116 2 ",
"   c #3A4566",
".  c #33426A",
"X  c #254E7E",
"o  c #314F75",
"O  c #305177",
"+  c #305278",
"@  c #54535F",
"#  c #5B565F",
"$  c #645859",
"%  c #775E55",
"&  c #785F55",
"*  c #756357",
"=  c #7C6654",
"-  c #7E6853",
";  c #766258",
":  c #7C6E5A",
">  c #535461",
",  c #5C5D63",
"<  c #655A6A",
"1  c #5A636A",
"2  c #4E6E7A",
"3  c #546871",
"4  c #5C6278",
"5  c #54687D",
"6  c #5C7D7B",
"7  c #6E7468",
"8  c #657771",
"9  c #6A7973",
"0  c #777F7D",
"q  c #BA442E",
"w  c #BC4730",
"e  c #BE4B32",
"r  c #C25336",
"t  c #C75B39",
"y  c #C85D39",
"u  c #D2662F",
"i  c #CE6132",
"p  c #D16530",
"a  c #D56B32",
"s  c #D46E39",
"d  c #DA7537",
"f  c #DD7B37",
"g  c #D67239",
"h  c #D97438",
"j  c #E17E36",
"k  c #A45948",
"l  c #80775F",
"z  c #A76A4F",
"x  c #AD6D49",
"c  c #856D68",
"v  c #907B64",
"b  c #DE813A",
"n  c #E18239",
"m  c #E28C3D",
"M  c #EF9F37",
"N  c #E49F3A",
"B  c #EB9A39",
"V  c #F09735",
"C  c #F49F35",
"Z  c #E5A03A",
"A  c #EAA53B",
"S  c #F2A436",
"D  c #F7AB36",
"F  c #FFAF33",
"G  c #F7B43D",
"H  c #B08347",
"J  c #BC964E",
"K  c #8F996F",
"L  c #9E9261",
"P  c #C59144",
"I  c #D09842",
"U  c #E3A640",
"Y  c #E4AA43",
"T  c #E4B64C",
"R  c #EBB949",
"E  c #CFC667",
"W  c #1F4D81",
"Q  c #1D5084",
"!  c #1E5B8C",
"~  c #165F97",
"^  c #1B5D92",
"/  c #244F80",
"(  c #225383",
")  c #215B8C",
"_  c #205F90",
"`  c #176197",
"'  c #1C6194",
"]  c #15649B",
"[  c #18669C",
"{  c #166A9F",
"}  c #1D689B",
"|  c #2E6588",
" . c #0E69A2",
".. c #0D6EAC",
"X. c #136CA3",
"o. c #0774AF",
"O. c #0C72AE",
"+. c #0F7AAF",
"@. c #1070A5",
"#. c #1B76A5",
"$. c #1075AB",
"%. c #1179AD",
"&. c #0974B2",
"*. c #077AB7",
"=. c #0B7EB5",
"-. c #077CB9",
";. c #487A87",
":. c #4C708A",
">. c #0A80B7",
",. c #0583BE",
"<. c #0981B9",
"1. c #0386C1",
"2. c #028BC5",
"3. c #008EC9",
"4. c #0090CB",
"5. c None",
/* pixels */
"5.5.5.5.5.5.5.5.5.5.5.5.5.5.5.5.5.5.5.5.5.5.5.5.5.5.5.5.5.5.5.5.",
"5.5.5.5.5.5.5.5.5.5.5.5.5.5.5.5.5.5.5.5.5.5.5.5.5.5.5.5.5.5.5.5.",
"5.5.5.5.5.5.5.5.5.5.5.5.5.5.5.5.5.5.5.5.5.5.5.5.5.5.5.5.5.5.5.5.",
"5.5.5.5.5.5.5.5.5.5.5.5.5.5.5.5.5.5.5.5.5.5.5.5.5.5.5.5.5.5.5.5.",
"5.5.5.5.5.5.5.5.5.5.5.5.5.5.5.5.5.5.5.5.5.5.5.5.5.5.5.5.5.5.5.5.",
"5.5.5.5.5.5.5.5.t t t t t t t t t t t t t t t y 5.5.5.5.5.5.5.5.",
"5.5.5.5.5.5.5.d f j j j n j n m m n n j j n m f h 5.5.5.5.5.5.5.",
"5.5.5.5.5.5.s V D Z N Z N Z Y T T Y N N N U T G V s 5.5.5.5.5.5.",
"5.5.5.5.t h C F P # @ > @ @ > > > > @ @ > > > P F C h t 5.5.5.5.",
"5.5.5.5.t d S H 1 ^ X.{ ~ X.X.X.@.! ( X.X.X.^ 1 H S h t 5.5.5.5.",
"5.5.5.5.y d S * W *.2.,.&.2.3.4.4.$.X.1.4.1.&./ = S h y 5.5.5.5.",
"5.5.5.5.t d S - ! ,.3.-.&.1.2.2.2.*.&.1.3.1.../ - S h y 5.5.5.5.",
"5.5.5.5.w a S - X O.,.<.&.1.2.2.2.*.&.2.2.,.../ ; m g y 5.5.5.5.",
"5.5.5.5.r a S = 1 L 2 ~ O.1.3.2.2.,.*.2.:.4 X.Q = B d t 5.5.5.5.",
"5.5.5.5.r a B * $ H 3 ` &.1.2.2.2.,.,.1.v x ' X = S d y 5.5.5.5.",
"5.5.5.5.w i m * . O +.,.&.,.2.2.2.,.,.1.K J ;.o l S d t 5.5.5.5.",
"5.5.5.5.q u V % ( =.2.,.&.1.2.2.2.,.,.2.| : E 7 = S h y 5.5.5.5.",
"5.5.5.5.q u C l ) 2.3.&.[ <.3.2.2.1.,.1. .6 R : * S h t 5.5.5.5.",
"5.5.5.5.r u S l ( 2.3.%.) =.3.2.2.1.<.2.o.6 A * * S f t 5.5.5.5.",
"5.5.5.5.r a S = ) ,.2.%._ <.3.2.2.,.,.1.#.8 m % * S d i 5.5.5.5.",
"5.5.5.5.e i m % X O.2.$._ =.3.2.2.,.,.2.0 x <   ; m g i 5.5.5.5.",
"5.5.5.5.r a B * , L 2 ! X.,.2.2.2.1.,.1.c k ) X * B g t 5.5.5.5.",
"5.5.5.5.y f S * $ H 3 ` &.1.2.2.2.,.-.1.5 < X.( l S d y 5.5.5.5.",
"5.5.5.5.t h S - . o %.,.$.,.3.2.2.=.&.2.%.X.X./ = C d t 5.5.5.5.",
"5.5.5.5.r u C l X X.1.%.^ -.2.2.2.-.&.2.1.&.X.( % m g y 5.5.5.5.",
"5.5.5.5.q p C & / O.1.$._ >.3.2.2.$.[ 1.1.-...X % m s y 5.5.5.5.",
"5.5.5.5.5.u C - X ..1.%._ >.3.2.2.X.' ,.1.*.../ % m s 5.5.5.5.5.",
"5.5.5.5.5.5.5.5.5.5.5.5.5.5.5.5.5.5.5.5.5.5.5.5.5.5.5.5.5.5.5.5.",
"5.5.5.5.5.5.5.5.5.5.5.5.5.5.5.5.5.5.5.5.5.5.5.5.5.5.5.5.5.5.5.5.",
"5.5.5.5.5.5.5.5.5.5.5.5.5.5.5.5.5.5.5.5.5.5.5.5.5.5.5.5.5.5.5.5.",
"5.5.5.5.5.5.5.5.5.5.5.5.5.5.5.5.5.5.5.5.5.5.5.5.5.5.5.5.5.5.5.5.",
"5.5.5.5.5.5.5.5.5.5.5.5.5.5.5.5.5.5.5.5.5.5.5.5.5.5.5.5.5.5.5.5."
};
