/* XPM */
static char *result[] = {
/* columns rows colors chars-per-pixel */
"32 32 135 2 ",
"   c #5E373B",
".  c #5E383D",
"X  c #653D3D",
"o  c #52453F",
"O  c #6D563F",
"+  c #6F593F",
"@  c #73553E",
"#  c #70593E",
"$  c #7E5D3D",
"%  c #1E2745",
"&  c #1F2844",
"*  c #1C335E",
"=  c #202744",
"-  c #252B44",
";  c #3B2D41",
":  c #24395E",
">  c #303754",
",  c #183A66",
"<  c #263F62",
"1  c #423D42",
"2  c #543543",
"3  c #3B485E",
"4  c #264063",
"5  c #334269",
"6  c #254E7E",
"7  c #314E75",
"8  c #48414C",
"9  c #4B4544",
"0  c #544740",
"q  c #524B44",
"w  c #4B4951",
"e  c #55535F",
"r  c #5B575E",
"t  c #684F41",
"y  c #6B5241",
"u  c #6C5E47",
"i  c #794C53",
"p  c #645959",
"a  c #71515F",
"s  c #7E724D",
"d  c #776257",
"f  c #7A6555",
"g  c #7E6853",
"h  c #756358",
"j  c #49576C",
"k  c #545461",
"l  c #5D5F64",
"z  c #5A646B",
"x  c #4E6F7B",
"c  c #536A72",
"v  c #BA442E",
"b  c #BC4730",
"n  c #BE4B32",
"m  c #AA5E34",
"M  c #83633D",
"N  c #B26931",
"B  c #A77B3A",
"V  c #C25336",
"C  c #C65E31",
"Z  c #C75B39",
"A  c #C85D39",
"S  c #D2662F",
"D  c #C66536",
"F  c #CE6132",
"G  c #D16530",
"H  c #D56B32",
"J  c #D56E39",
"K  c #DB7637",
"L  c #DD7B37",
"P  c #D77239",
"I  c #DA7538",
"U  c #E17E36",
"Y  c #B15E46",
"T  c #836E45",
"R  c #BE7141",
"E  c #A2715C",
"W  c #BF8A3A",
"Q  c #DD8F35",
"!  c #DE813A",
"~  c #D78B3E",
"^  c #DF8A3B",
"/  c #DF9435",
"(  c #E2833A",
")  c #E28C3C",
"_  c #E29C36",
"`  c #EC9B37",
"'  c #E39F3B",
"]  c #EB9A39",
"[  c #F09735",
"{  c #F49F35",
"}  c #EEA036",
"|  c #E3A23B",
" . c #F2A436",
".. c #F7AB36",
"X. c #FFAF34",
"o. c #F6B33B",
"O. c #B08347",
"+. c #9E9362",
"@. c #C59043",
"#. c #C1974D",
"$. c #DFBE57",
"%. c #E3AA42",
"&. c #E3B346",
"*. c #E4B74E",
"=. c #E3B84E",
"-. c #1E4D82",
";. c #1E568B",
":. c #1F5C8F",
">. c #165D97",
",. c #1C5C91",
"<. c #234F80",
"1. c #235383",
"2. c #225887",
"3. c #215B8C",
"4. c #15669F",
"5. c #1F6A9F",
"6. c #346188",
"7. c #246C9E",
"8. c #2D6E9A",
"9. c #2D779C",
"0. c #0F6AA7",
"q. c #0D6DAB",
"w. c #126AA5",
"e. c #0D72AD",
"r. c #0F7AAF",
"t. c #1270A7",
"y. c #1077AC",
"u. c #1078AD",
"i. c #036EB3",
"p. c #0570B3",
"a. c #0971B1",
"s. c #057EBC",
"d. c #0484BF",
"f. c #0286C2",
"g. c None",
/* pixels */
"g.g.g.g.g.g.g.g.g.g.g.g.g.g.g.g.g.g.g.g.g.g.g.g.g.g.g.g.g.g.g.g.",
"g.g.g.g.g.g.g.g.g.g.g.g.g.g.g.g.g.g.g.g.g.g.g.g.g.g.g.g.g.g.g.g.",
"g.g.g.g.g.g.g.g.g.g.g.g.g.g.g.g.g.g.g.g.g.g.g.g.g.g.g.g.g.g.g.g.",
"g.g.g.g.g.g.g.g.g.g.g.g.g.g.g.g.g.g.g.g.g.g.g.g.g.g.g.g.g.g.g.g.",
"g.g.g.g.g.g.g.g.g.g.g.g.g.g.g.g.g.g.g.g.g.g.g.g.g.g.g.g.g.g.g.g.",
"g.g.g.g.g.g.g.g.A A Z Z Z Z Z Z Z Z Z Z Z Z Z Z g.g.g.g.g.g.g.g.",
"g.g.g.g.g.g.g.I L U U U U U ( ) ) ( U U ( ( ) L I g.g.g.g.g.g.g.",
"g.g.g.g.g.g.J [ ..| ' ' ' ' %.=.*.%._ _ _ | &.o.[ J g.g.g.g.g.g.",
"g.g.g.g.Z P  .X.@.r e e e k k k k w 1 1 1 1 9 W X.{ P Z g.g.g.g.",
"g.g.g.g.Z K  .O.z 4.>.1.6 ,.>.,.<.: = = = = = 0 B  .K Z g.g.g.g.",
"g.g.g.g.Z K  .f -.q.a.4.:.0.a.q.:.4 - - - - - % y  .K Z g.g.g.g.",
"g.g.g.g.Z K  .g -.q.a.4.3.0.a.0.:.4 - - - - - = u  .K Z g.g.g.g.",
"g.g.g.g.b H  .g 1.q.d.t.3.w.q.q.:.4 - - - - - = y ) P A g.g.g.g.",
"g.g.g.g.V H  .f z +.x 2.3.0.i.5.a 2 = - - - - = y ` P Z g.g.g.g.",
"g.g.g.g.V H ] h p O.c 2.3.0.p.9.R N y X 2 = - & #  .L Z g.g.g.g.",
"g.g.g.g.b F ) d 5 7 u.r.3.w.p.9.#.` Q D o = - = #  .K Z g.g.g.g.",
"g.g.g.g.b F ) E 6 w.f.u.3.0.a.w.j 8 u $.s = - = #  .L Z g.g.g.g.",
"g.g.g.g.b J ] T <.q.f.y.3.0.a.w.2.* q &.M = - = +  .K Z g.g.g.g.",
"g.g.g.g.n H  .T <.q.f.y.3.0.a.q.:., o _ M = - % +  .K Z g.g.g.g.",
"g.g.g.g.V P %.T <.q.f.y.3.w.a.t.6.3 O _ g = - = + } K Z g.g.g.g.",
"g.g.g.g.b F ( a <.q.f.y.3.w.i.7.E ~ Q C X = - = y ) P A g.g.g.g.",
"g.g.g.g.V J [ d l +.x 2.3.w.p.8.Y m @ . ; - - = O ] I Z g.g.g.g.",
"g.g.g.g.A U %.h p O.c 2.3.w.a.7.i   % = - - - = O  .L Z g.g.g.g.",
"g.g.g.g.V U  .T 5 7 u.y.3.w.a.w.7 > % = - - - = O  .I Z g.g.g.g.",
"g.g.g.g.b G  .g 6 w.a.w.2.w.a.0.3.4 - - - - - = t ) P A g.g.g.g.",
"g.g.g.g.b G ] T <.q.s.t.3.w.a.q.3.4 - - - - - = O ^ J A g.g.g.g.",
"g.g.g.g.g.G  .g <.y.f.u.3.w.a.0.3.4 - - - - - = t ^ J g.g.g.g.g.",
"g.g.g.g.g.g.g.g.g.g.g.g.g.g.g.g.g.g.g.g.g.g.g.g.g.g.g.g.g.g.g.g.",
"g.g.g.g.g.g.g.g.g.g.g.g.g.g.g.g.g.g.g.g.g.g.g.g.g.g.g.g.g.g.g.g.",
"g.g.g.g.g.g.g.g.g.g.g.g.g.g.g.g.g.g.g.g.g.g.g.g.g.g.g.g.g.g.g.g.",
"g.g.g.g.g.g.g.g.g.g.g.g.g.g.g.g.g.g.g.g.g.g.g.g.g.g.g.g.g.g.g.g.",
"g.g.g.g.g.g.g.g.g.g.g.g.g.g.g.g.g.g.g.g.g.g.g.g.g.g.g.g.g.g.g.g."
};
