/* XPM */
static char *result[] = {
/* columns rows colors chars-per-pixel */
"32 32 195 2 ",
"   c #BA412D",
".  c #BB422C",
"X  c #BD462E",
"o  c #BC482F",
"O  c #BD492F",
"+  c #BE492F",
"@  c #BE4A2F",
"#  c #BE4B2F",
"$  c #BF4C2F",
"%  c #BE4B30",
"&  c #BF4C30",
"*  c #D85D29",
"=  c #C55B34",
"-  c #D1642E",
";  c #D1662F",
":  c #D9602A",
">  c #C96638",
",  c #C96739",
"<  c #CA693A",
"1  c #D16A32",
"2  c #D16F36",
"3  c #DB7530",
"4  c #D17239",
"5  c #D3793C",
"6  c #D1793E",
"7  c #D17A3F",
"8  c #D27C3F",
"9  c #D47E3F",
"0  c #F77220",
"q  c #F77521",
"w  c #F77522",
"e  c #F77622",
"r  c #F77722",
"t  c #F77723",
"y  c #F77823",
"u  c #F77924",
"i  c #F87D24",
"p  c #F87F25",
"a  c #D27C40",
"s  c #D27D40",
"d  c #F88025",
"f  c #F88027",
"g  c #FA8A27",
"h  c #F98A29",
"j  c #FA8C29",
"k  c #FA8F29",
"l  c #FA8F2A",
"z  c #FA8F2B",
"x  c #F9902B",
"c  c #FB932A",
"v  c #FB922B",
"b  c #FB932B",
"n  c #FB952C",
"m  c #FB982E",
"M  c #FB9A2F",
"N  c #FC9B2E",
"B  c #FC9F2E",
"V  c #EE8D31",
"C  c #E69139",
"Z  c #F99432",
"A  c #F99734",
"S  c #F99C37",
"D  c #F99E38",
"F  c #FDA530",
"G  c #FDA631",
"H  c #FEA631",
"J  c #FDA632",
"K  c #FDA732",
"L  c #FEAA31",
"P  c #FEAB31",
"I  c #FEAA32",
"U  c #FEAB32",
"Y  c #FEAD32",
"T  c #FEAC33",
"R  c #FEAD33",
"E  c #FEAE33",
"W  c #FBAA34",
"Q  c #FBAB35",
"!  c #FEAD34",
"~  c #FEAE34",
"^  c #FEAF34",
"/  c #FFAF34",
"(  c #FEAF35",
")  c #FAA039",
"_  c #FBA338",
"`  c #FAAA3F",
"'  c #FEB035",
"]  c #FEB135",
"[  c #FFB135",
"{  c #FEB036",
"}  c #FEB136",
"|  c #FEB137",
" . c #FFB236",
".. c #FEB237",
"X. c #FDB239",
"o. c #FEB338",
"O. c #FEB23B",
"+. c #FEB43A",
"@. c #FEB73A",
"#. c #FFB73A",
"$. c #FEB73B",
"%. c #FBB73D",
"&. c #FDB53C",
"*. c #FDB73E",
"=. c #FFBA3B",
"-. c #FEBA3D",
";. c #FEBA3E",
":. c #FEBB3E",
">. c #FFBD3E",
",. c #FEBC3F",
"<. c #E79840",
"1. c #E29E47",
"2. c #E8A448",
"3. c #E4A94E",
"4. c #E5AD4F",
"5. c #E6AD4F",
"6. c #F0AC42",
"7. c #F9AC41",
"8. c #FBAD40",
"9. c #E9B24F",
"0. c #FBB243",
"q. c #FBB445",
"w. c #FBB546",
"e. c #FDB840",
"r. c #FEBD40",
"t. c #FEBE40",
"y. c #FEBE41",
"u. c #F0B54D",
"i. c #FBBB49",
"p. c #FBBE4A",
"a. c #FBBE4B",
"s. c #FCBE4A",
"d. c #E5AD50",
"f. c #E6AF50",
"g. c #ECBB53",
"h. c #FEC042",
"j. c #FEC043",
"k. c #FEC143",
"l. c #FBC247",
"z. c #FEC244",
"x. c #FEC444",
"c. c #FEC647",
"v. c #FBC348",
"b. c #FEC748",
"n. c #FEC749",
"m. c #FCC24D",
"M. c #FEC848",
"N. c #FFCA49",
"B. c #FECB4A",
"V. c #FED04F",
"C. c #FFD24E",
"Z. c #FBCD50",
"A. c #FDCF52",
"S. c #FED250",
"D. c #FED251",
"F. c #FED351",
"G. c #FFD552",
"H. c #FED553",
"J. c #FED652",
"K. c #FED653",
"L. c #FDD054",
"P. c #FED855",
"I. c #FED955",
"U. c #FFD955",
"Y. c #FFDA54",
"T. c #FED956",
"R. c #FFDC55",
"E. c #FBD959",
"W. c #FEDB58",
"Q. c #FEDC58",
"!. c #FEDE59",
"~. c #FEDE5A",
"^. c #FEDF5B",
"/. c #FBE05F",
"(. c #FBE15F",
"). c #FEE05C",
"_. c #FEE15C",
"`. c #FFE25C",
"'. c #FEE25D",
"]. c #FDE35F",
"[. c #FEE35E",
"{. c #FEE55F",
"}. c #FBE160",
"|. c #FBE260",
" X c #FEE761",
".X c #FEE862",
"XX c #FEE963",
"oX c #FFEA62",
"OX c #FEEA63",
"+X c #FEEB63",
"@X c #FFEB63",
"#X c #FFEC63",
"$X c #FEEB64",
"%X c #FEED65",
"&X c None",
/* pixels */
"&X&X&X&X&X&X&X&X&X&X&X&X&X&X&X&X&X&X&X&X&X&X&X&X&X&X&X&X&X&X&X&X",
"&X&X&X&X&X&X&X&X&X&X&X&X&X&X&X&X&X&X&X&X&X&X&X&X&X&X&X&X&X&X&X&X",
"&X&X&X&X&X&X&X&X&X&X&X&X&X&X&X&X&X&X&X&X&X&X&X&X&X&X&X&X&X&X&X&X",
"&X&X&X&X&X&X&X&X&X&X&X&X&X&X&X&X&X&X&X&X&X&X&X&X&X&X&X&X&X&X&X&X",
"&X&X&X&X&X&X&X&X&X&X&X&X&X&X&X&X&X&X&X&X&X&X&X&X&X&X&X&X&X&X&X&X",
"&X&X&X&X&X&X&X&X&X&X&X&X&X&X&X&X&X&X&X&X&X&X&X&X&X&X&X&X&X&X&X&X",
"&X&X&X&X&X&X&X&X&X&Xe y 7.|././././././././.].{.&X&X&X&X&X&X&X&X",
"&X&X&X&X&X&X&X&X&X0 u 0.2.a s 8 8 8 8 s a 9 6.C.XX&X&X&X&X&X&X&X",
"&X&X&X&X&X&X&X&X0 f ) s.<.- ; 4 7 6 6 2 1 5 V O.K.&X&X&X&X&X&X&X",
"&X&X&X&X&X&X&Xe y D L.Z x W Q Z.|.(.}.l.%.E.S g X.T.&X&X&X&X&X&X",
"&X&X&X&X&X&Xw r ` i.A M H / [ G.#XoX@XN.>.`.e.k h &.J.$X&X&X&X&X",
"&X&X&X&X&X&Xw t m.A.l G ' ! ( F.XX X.XM.;.).x.B j c e.F.&X&X&X&X",
"&X&X&X&X&X&Xw t a.P.( R ~ ! ( F.XX X.XM.;.).k.R J d n ] &X&X&X&X",
"&X&X&X&X&X&Xw t a.I.} R ~ ! ( F.XX X.XM.;.).k.E K p b E &X&X&X&X",
"&X&X&X&X&X&Xw t a.I.{ R ~ ! ( F.XX X.XM.;.).k.E K p _ B.&X&X&X&X",
"&X&X&X&X&X&Xq t p.I.{ R ~ ! ( F.XX X.XM.;.).k.E K p q.+X&X&X&X&X",
"&X&X&X&X&X&Xq t p.I.{ R ~ ! ( F.XX X.XM.;.).k.E K p q.+X&X&X&X&X",
"&X&X&X&X&X&X* : u.U.{ R ~ ! ( F.XX X.XM.;.).k.E K p w.%X&X&X&X&X",
"&X&X&X&X&X&Xo % d.Y.{ R ~ ! ( F.XX X.XM.;.).k.E K p 8.!.&X&X&X&X",
"&X&X&X&X&X&XO & 4.Y.{ R ~ ! ( F.XX X.XM.;.).k.E K p m @.&X&X&X&X",
"&X&X&X&X&X&X+ & 5.Y.{ R ~ ! ( F.XX X.XM.;.).k.Y F i v E &X&X&X&X",
"&X&X&X&X&X&XO & f.R.( R ~ ! ( F.XX X.Xb.:._.j.o.*.z N ^ &X&X&X&X",
"&X&X&X&X&X&X+ $ 3.K...~ ~ ! ( F.XX X.XM.-.~.k.z.T.+.I ~ &X&X&X&X",
"&X&X&X&X&X&X&X# > 1.S.#.U R ~ D.XX X.XM.( y.V.V.h...~ &X&X&X&X&X",
"&X&X&X&X&X&X&X@ . , 9.v.=.| k.Q.OX.XXXH.k.k.V.c.R R &X&X&X&X&X&X",
"&X&X&X&X&X&X&X&X@ + = g.n.$.W.[.[.[.[.'._.^.h.~ ~ &X&X&X&X&X&X&X",
"&X&X&X&X&X&X&X&X&XX # < C  .,.t.r.r.r.t.y.r...T &X&X&X&X&X&X&X&X",
"&X&X&X&X&X&X&X&X&X&X+   3 / U L P P P P P P R &X&X&X&X&X&X&X&X&X",
"&X&X&X&X&X&X&X&X&X&X&X&X&X&X&X&X&X&X&X&X&X&X&X&X&X&X&X&X&X&X&X&X",
"&X&X&X&X&X&X&X&X&X&X&X&X&X&X&X&X&X&X&X&X&X&X&X&X&X&X&X&X&X&X&X&X",
"&X&X&X&X&X&X&X&X&X&X&X&X&X&X&X&X&X&X&X&X&X&X&X&X&X&X&X&X&X&X&X&X",
"&X&X&X&X&X&X&X&X&X&X&X&X&X&X&X&X&X&X&X&X&X&X&X&X&X&X&X&X&X&X&X&X"
};
