/* XPM */
static char *_717234bf0214fe5d38f067436de9b676nGjfp4piVvHIGuz[] = {
/* columns rows colors chars-per-pixel */
"32 32 180 2 ",
"   c #BF462E",
".  c #C1472F",
"X  c #C24830",
"o  c #9F4030",
"O  c #5C2E31",
"+  c #472C33",
"@  c #633837",
"#  c #874037",
"$  c #AD4431",
"%  c #C1462E",
"&  c #C0462E",
"*  c #C0573E",
"=  c #C1533A",
"-  c #C24C33",
";  c #9F3F30",
":  c #5C2E30",
">  c #472B33",
",  c #633737",
"<  c #87453A",
"1  c #AE523D",
"2  c #C2583E",
"3  c #C1583E",
"4  c #C1775C",
"5  c #C36B50",
"6  c #C3543A",
"7  c #9F3F2F",
"8  c #472B32",
"9  c #623736",
"0  c #874C42",
"q  c #AF6A54",
"w  c #C3785D",
"e  c #C2785C",
"r  c #C1785D",
"t  c #C27C61",
"y  c #C28468",
"u  c #C3583E",
"i  c #9F3E2F",
"p  c #C3795D",
"a  c #C0583F",
"s  c #C0644A",
"d  c #C3583F",
"f  c #87453B",
"g  c #C2583F",
"h  c #C1583F",
"j  c #C0472F",
"k  c #C0452D",
"l  c #C1573E",
"z  c #C2785D",
"x  c #C4795D",
"c  c #C4593F",
"v  c #A03E2F",
"b  c #623837",
"n  c #874137",
"m  c #AE4531",
"M  c #C2472E",
"N  c #C1472E",
"B  c #C57A5D",
"V  c #C5593F",
"C  c #AF4531",
"Z  c #C3482F",
"A  c #C2472F",
"S  c #AD4632",
"D  c #AD4532",
"F  c #AD4531",
"G  c #B16B54",
"H  c #B1533D",
"J  c #923D31",
"K  c #582D30",
"L  c #482C33",
"P  c #643837",
"I  c #834138",
"U  c #A04434",
"Y  c #AF4632",
"T  c #AE4632",
"R  c #884D42",
"E  c #88453B",
"W  c #743A35",
"Q  c #4E2C32",
"!  c #492C33",
"~  c #663837",
"^  c #7A4039",
"/  c #633736",
"(  c #593336",
")  c #442A32",
"_  c #452A32",
"`  c #5A3436",
"'  c #653837",
"]  c #4A2C33",
"[  c #442A33",
"{  c #3D2731",
"}  c #3E2731",
"|  c #3C2631",
" . c #442831",
".. c #552D31",
"X. c #5D2F30",
"o. c #5D2E30",
"O. c #5C2D30",
"+. c #542C31",
"@. c #3A2631",
"#. c #883A30",
"$. c #A34030",
"%. c #A13F2F",
"&. c #A03F2F",
"*. c #A14030",
"=. c #863930",
"-. c #532C31",
";. c #873A30",
":. c #592E31",
">. c #933E32",
",. c #B74B35",
"<. c #C0553C",
"1. c #C3593F",
"2. c #C5543A",
"3. c #C54D33",
"4. c #A04030",
"5. c #5B2E31",
"6. c #562E31",
"7. c #923E32",
"8. c #733934",
"9. c #974F40",
"0. c #B66B54",
"q. c #C5795D",
"w. c #C56C51",
"e. c #4C2C32",
"r. c #723935",
"t. c #492C32",
"y. c #864C42",
"u. c #B06A54",
"i. c #C2775C",
"p. c #C37D61",
"a. c #C38569",
"s. c #C4583E",
"d. c #462B32",
"f. c #613636",
"g. c #86453B",
"h. c #AF523D",
"j. c #C2573E",
"k. c #C1573D",
"l. c #C2644A",
"z. c #C37E62",
"x. c #C57A5E",
"c. c #462B33",
"v. c #623737",
"b. c #834037",
"n. c #A04333",
"m. c #AD4430",
"M. c #AD4330",
"N. c #AE513C",
"B. c #BF472F",
"V. c #BF452D",
"C. c #4B2D33",
"Z. c #663937",
"A. c #7A3F39",
"S. c #874036",
"D. c #87443A",
"F. c #4E2D32",
"G. c #3D2631",
"H. c #5B3436",
"J. c #C14830",
"K. c #C04830",
"L. c #BF4830",
"P. c #402831",
"I. c #452B32",
"U. c #3F2831",
"Y. c #452931",
"T. c #3B2631",
"R. c #873930",
"E. c #C1795E",
"W. c #C1543B",
"Q. c #C26C52",
"!. c #C26C51",
"~. c #C34830",
"^. c #C1482F",
"/. c #C14C33",
"(. c #C1543A",
"). c #5C3435",
"_. c #643736",
"`. c #412831",
"'. c #4A2C32",
"]. c white",
/* pixels */
"                                      . X o O + @ # $ % &       ",
"* * * * * * * * * * * * * * * * * * * = - ; : > , < 1 2 3 * * * ",
"4 4 4 4 4 4 4 4 4 4 4 4 4 4 4 4 4 4 4 5 6 7 : 8 9 0 q w e 4 4 4 ",
"r r r r r r r r r r r r r r r 4 4 t y w u i : 8 9 0 q p p r r r ",
"a a a a a a a a a a a a a a a * * s t p d i : > , f 1 g h a a a ",
"j j j j j j j j j j j j j j j & k l z x c v : + b n m M N j j j ",
". . . . . . . . . . . . . . . % % 2 p B V v : + b n C Z A . . . ",
"S S S S S S S S S S S S S S S D F 1 q G H J K L P I U Y T S S S ",
"n n n n n n n n n n n n n n n n n f 0 R E W Q ! ~ ^ I n n n n n ",
"P P @ b b @ @ @ @ @ @ @ @ b b @ P P / / @ ( ) _ ` ' P b b @ @ @ ",
"] ! + + + + + + + + + + + + + + ! ! 8 8 + [ { } _ L + + + + + + ",
"|  ...X.o.O.: : : : : : : : o.+. . ...X.o.: o.o.: : : : : : : O ",
"@...#.$.%.i i i i i i i i &.*.=.-.-.;.$.%.i &.&.i i i i i 7 ; o ",
"@.:.>.,.<.1.1.d d d d d u 2.3.4.5.6.7.,.<.1.1.d d d d d u 6 - X ",
"| Q 8.9.0.q.x w w w w p w w.2.&.: e.r.9.0.q.x w w w w p w 5 = . ",
"| t.9 y.u.x x e e e i.p.a.x s.v : d.f.y.q p p r r 4 4 t y 4 *   ",
"| ! , g.h.d u 2 2 j.k.l.z.x.V v : c.v.g.1 g h a a * * s t 4 *   ",
"| ] ' b.n.C m $ $ m.M.N.q G H J K + @ n F N j B.B.  V.* 4 4 *   ",
"| C.Z.A.b.S.S.S.S.S.S.D.0 R E W F.L @ n D . j B.B.    * 4 4 *   ",
"G.8 H.' P b b @ @ @ @ , 9 / @ ( d.! P n S J.K.L.L.B.B.a r 4 *   ",
"} P.I.L + + + + + + + > 8 8 + ) U.! P n S J.K.L.L.B.B.a r 4 *   ",
"{ Y...o.o.O.: : : : : : : : o.+. .! P n S J.K.L.L.B.B.a r 4 *   ",
"T...#.$.%.i i i i i i i i &.*.R.+.+ @ n S J.K.L.L.B.B.a r 4 *   ",
"@.:.>.,.<.1.1.d d d d d u 2.3.*.o.+ b n S J.K.L.L.B.B.a r r *   ",
"| Q 8.9.0.q.x w w w w p w w.2.&.: + b n S J.K.L.L.B.B.a E.r a   ",
"| t.9 y.u.x x e e e i.p.a.x s.v : + b n T X J.K.K.j j W.Q.!.W.j ",
"| ! , g.h.d u 2 2 j.k.l.z.x.V v : + b n Y ~.X J.J.J.^./.W.(./.^.",
"| ] ' b.n.C m $ $ m.M.N.q G H J K L P I U Y T S S S S S F F S S ",
"| C.Z.A.b.S.S.S.S.S.S.D.0 R E W Q ! ~ ^ I n n n n n n n S.S.n n ",
"G.8 ).Z.' P P P P P P P _._.' ` d.8 ).Z.' P P P P P P P P P P P ",
"} `.8 C.] ! ! ! ! ! ! ! t.'.] c.P.`.8 C.] ! ! ! ! ! ! ! ! ! ! ! ",
"} } G.| | | | | | | | | | | | G.} } G.| | | | | | | | | | | | | "
};
