/* XPM */
static char *result[] = {
/* columns rows colors chars-per-pixel */
"32 32 6 1 ",
"  c #181818",
". c #885038",
"X c #D08860",
"o c #F8D098",
"O c #F8F0E0",
"+ c None",
/* pixels */
"++++++++++++++++++++++++++++++++",
"++++++++++++++++++++++++++++++++",
"+++++++++++++..XX..+++++++++++++",
"+++++++++++.XoooooX..+++++++++++",
"++++++++++.XoooooooX.+++++++++++",
"++++++++++.ooooooooXX.++++++++++",
"++++++++++.ooooooXXXX.++++++++++",
"++++++++++.oooooX..XX.++++++++++",
"++++++++++.XooXX.Xo.X ++++++++++",
"++++++++++ XX..XoXo.. ++++++++++",
"++++++++++ XX OXoo. . ++++++++++",
"++++++++++.oo OXoX.  +++++++++++",
"++++++++++.oooXX..  ++++++++++++",
"++++++++++.XooX..  +++++++++++++",
"+++++++++++...  .. +++++++++++++",
"++++++++++++ XX.oo.+++++++++++++",
"++++++++++++ oo.ooX.++++++++++++",
"+++++++++++  oo Xoo.++++++++++++",
"++++++++++  .oX Xoo.++++++++++++",
"++++++++++ ..X. .oo.++++++++++++",
"++++++++++ ..X. .XX ++++++++++++",
"+++++++++++  ...Xoo ++++++++++++",
"++++++++++++ ...XoX ++++++++++++",
"++++++++++++ ....  +++++++++++++",
"++++++++++++ ..oXX.+++++++++++++",
"++++++++++++ ..ooX.+++++++++++++",
"+++++++++++ ...ooXX.++++++++++++",
"++++++++++ ....XXXX.++++++++++++",
"++++++++++    XooXX ++++++++++++",
"++++++++++++ XooooX ++++++++++++",
"++++++++++++         +++++++++++",
"++++++++++++++++++++++++++++++++"
};
