/* XPM */
static char *result[] = {
/* columns rows colors chars-per-pixel */
"32 32 5 1 ",
"  c #181818",
". c #885038",
"X c #D08860",
"o c #F8D098",
"O c None",
/* pixels */
"OOOOOOOOOOOOOOOOOOOOOOOOOOOOOOOO",
"OOOOOOOOOOOOOOOOOOOOOOOOOOOOOOOO",
"OOOOOOOOOOOOO..XX..OOOOOOOOOOOOO",
"OOOOOOOOOOOOXoooooX.OOOOOOOOOOOO",
"OOOOOOOOOOOXoooooooX.OOOOOOOOOOO",
"OOOOOOOOOOOXoooooooo.OOOOOOOOOOO",
"OOOOOOOOOOX.oooooooo..OOOOOOOOOO",
"OOOOOOOOOOo.oooooooo.XOOOOOOOOOO",
"OOOOOOOOOOo.oooooooX.XOOOOOOOOOO",
"OOOOOOOOOOX.XooooXXX .OOOOOOOOOO",
"OOOOOOOOOOO .XXXXXX. OOOOOOOOOOO",
"OOOOOOOOOOOO .XXXX. OOOOOOOOOOOO",
"OOOOOOOOOOOO  ....  OOOOOOOOOOOO",
"OOOOOOOOOOO..XXXXXX..OOOOOOOOOOO",
"OOOOOOOOOO.ooXooooXoo.OOOOOOOOOO",
"OOOOOOOOOO.ooXooooXoo.OOOOOOOOOO",
"OOOOOOOOO.XoX.XooX.XoX.OOOOOOOOO",
"OOOOOOOOO.ooX XooX Xoo.OOOOOOOOO",
"OOOOOOOOO.oX. .oo. .Xo.OOOOOOOOO",
"OOOOOOOOO.XX .XooX. XX.OOOOOOOOO",
"OOOOOOOOO XX .oooo. XX OOOOOOOOO",
"OOOOOOOOO X. .oooo. .X OOOOOOOOO",
"OOOOOOOOOO   X.. ..   OOOOOOOOOO",
"OOOOOOOOOOOO.oX. .X OOOOOOOOOOOO",
"OOOOOOOOOOOO.ooX XX OOOOOOOOOOOO",
"OOOOOOOOOOO .ooX.XX  OOOOOOOOOOO",
"OOOOOOOOOO .XoXX.XX.  OOOOOOOOOO",
"OOOOOOOOO ..XXoX.oXX. OOOOOOOOOO",
"OOOOOOOOO .XoooX.oo. OOOOOOOOOOO",
"OOOOOOOOOO .XooX    OOOOOOOOOOOO",
"OOOOOOOOOOO      OOOOOOOOOOOOOOO",
"OOOOOOOOOOOOOOOOOOOOOOOOOOOOOOOO"
};
