/* XPM */
static char *result[] = {
/* columns rows colors chars-per-pixel */
"32 32 6 1 ",
"  c #181818",
". c #885038",
"X c #D08860",
"o c #F8D098",
"O c #F8F0E0",
"+ c None",
/* pixels */
"++++++++++++++++++++++++++++++++",
"++++++++++++++++++++++++++++++++",
"++++++++++++..XX..++++++++++++++",
"+++++++++++XoooooX.+++++++++++++",
"++++++++++XoooooooX.++++++++++++",
"++++++++++XoooooooX.++++++++++++",
"++++++++++.oooooooX.++++++++++++",
"+++++++++X.oooooooX..+++++++++++",
"+++++++++o.XoooooXX.X+++++++++++",
"+++++++++o.X..XX..X.X+++++++++++",
"+++++++++X .O XX O. .+++++++++++",
"++++++++++ .O oo O. ++++++++++++",
"+++++++++++ XoooXX +++++++++++++",
"++++++++++.. XooX ..++++++++++++",
"+++++++++.XXX....XXX.+++++++++++",
"+++++++++.XXXooooXXX.+++++++++++",
"++++++++.XoX.oooo.XoX.++++++++++",
"++++++++.ooX oooo Xoo.++++++++++",
"++++++++.oo. XooX .oo.++++++++++",
"++++++++.XX. XooX .XX.++++++++++",
"++++++++ oo...XX...oo ++++++++++",
"++++++++ oX........Xo ++++++++++",
"++++++++ X. .XX... .X ++++++++++",
"+++++++++   .XX.X.   +++++++++++",
"+++++++++++.XoX.XX +++++++++++++",
"+++++++++++.ooX.XX +++++++++++++",
"++++++++++.XooX.XX +++++++++++++",
"++++++++++.XXXX.XoX ++++++++++++",
"+++++++++.XooXX.oooX +++++++++++",
"++++++++ Xooo.       +++++++++++",
"++++++++       +++++++++++++++++",
"++++++++++++++++++++++++++++++++"
};
