/* XPM */
static char *result[] = {
/* columns rows colors chars-per-pixel */
"32 32 6 1 ",
"  c #181818",
". c #885038",
"X c #D08860",
"o c #F8D098",
"O c #F8F0E0",
"+ c None",
/* pixels */
"++++++++++++++++++++++++++++++++",
"++++++++++++++++++++++++++++++++",
"+++++++++++++..XX..+++++++++++++",
"+++++++++++..XoooooX.+++++++++++",
"+++++++++++.XoooooooX.++++++++++",
"++++++++++.XXoooooooo.++++++++++",
"++++++++++.XXXXoooooo.++++++++++",
"++++++++++.XX..Xooooo.++++++++++",
"++++++++++ X.oX.XXooX.++++++++++",
"++++++++++ ..oXoX..XX ++++++++++",
"++++++++++ . .ooXO XX ++++++++++",
"+++++++++++  .XoXO oo.++++++++++",
"++++++++++++  ..XXooo.++++++++++",
"+++++++++++++  ..XooX.++++++++++",
"+++++++++++++ ..  ...+++++++++++",
"+++++++++++++.oo.XX ++++++++++++",
"++++++++++++.Xoo.oo ++++++++++++",
"++++++++++++.ooX oo  +++++++++++",
"++++++++++++.ooX Xo.  ++++++++++",
"++++++++++++.oo. .X.. ++++++++++",
"++++++++++++ XX. .X.. ++++++++++",
"++++++++++++ ooX...  +++++++++++",
"++++++++++++ XoX... ++++++++++++",
"+++++++++++++  .... ++++++++++++",
"+++++++++++++.XXo.. ++++++++++++",
"+++++++++++++.Xoo.. ++++++++++++",
"++++++++++++.XXoo... +++++++++++",
"++++++++++++.XXXX.... ++++++++++",
"++++++++++++ XXooX    ++++++++++",
"++++++++++++ XooooX ++++++++++++",
"+++++++++++         ++++++++++++",
"++++++++++++++++++++++++++++++++"
};
